<svg width="1012" height="789" viewBox="0 0 1012 789" fill="none" xmlns="http://www.w3.org/2000/svg">
<path d="M47.08 696V613.44H86.44V625.8H60.76V648.12H82.96V660.48H60.76V683.64H86.44V696H47.08ZM109.342 696L92.0622 613.44H106.102L119.062 680.88H119.902L132.742 613.44H146.422L129.142 696H109.342ZM188.806 696L184.846 677.28H163.726L159.886 696H146.086L164.566 613.44H184.366L202.846 696H188.806ZM174.646 627H173.926L166.246 665.04H182.206L174.646 627Z" fill="#E53E3E"/>
<path d="M232.08 696V613.44H271.44V625.8H245.76V648.12H267.96V660.48H245.76V683.64H271.44V696H232.08ZM310.542 662.28C310.542 656.92 310.382 653.16 310.062 651C309.742 648.84 309.102 647.48 308.142 646.92C307.182 646.28 305.502 645.96 303.102 645.96C300.542 645.96 298.702 646.52 297.582 647.64C296.462 648.68 295.742 650.36 295.422 652.68C295.182 655 295.062 658.8 295.062 664.08V696H282.102V634.8H293.982L294.462 642.48H295.182C296.222 639.44 297.902 637.24 300.222 635.88C302.542 634.52 305.542 633.84 309.222 633.84C313.222 633.84 316.222 634.64 318.222 636.24C320.302 637.76 321.702 640.12 322.422 643.32C323.142 646.44 323.502 650.76 323.502 656.28V696H310.542V662.28ZM339.608 696V645.96H331.568V634.8H339.608V617.04H352.568V634.8H362.408V645.96H352.568V696H339.608ZM410.064 669.84H381.624C381.624 675.04 381.864 678.68 382.344 680.76C382.824 682.76 383.864 684.12 385.464 684.84C387.064 685.48 389.864 685.8 393.864 685.8C397.704 685.8 402.624 685.48 408.624 684.84V695.04C406.624 695.6 403.944 696.04 400.584 696.36C397.304 696.76 394.104 696.96 390.984 696.96C384.264 696.96 379.304 695.96 376.104 693.96C372.984 691.88 370.944 688.76 369.984 684.6C369.104 680.36 368.664 674 368.664 665.52C368.664 657.12 369.104 650.8 369.984 646.56C370.864 642.32 372.824 639.16 375.864 637.08C378.904 634.92 383.664 633.84 390.144 633.84C396.544 633.84 401.104 634.88 403.824 636.96C406.624 638.96 408.344 642 408.984 646.08C409.704 650.08 410.064 656.52 410.064 665.4V669.84ZM389.904 645C387.424 645 385.624 645.36 384.504 646.08C383.384 646.8 382.624 648.16 382.224 650.16C381.904 652.16 381.704 655.52 381.624 660.24H397.704V660.12C397.704 655.48 397.504 652.12 397.104 650.04C396.704 647.96 395.984 646.6 394.944 645.96C393.904 645.32 392.224 645 389.904 645ZM421.321 634.8H433.201L433.681 645.24H434.521C435.721 640.92 437.481 637.96 439.801 636.36C442.201 634.68 445.321 633.84 449.161 633.84V647.64C445.481 647.64 442.561 648.28 440.401 649.56C438.241 650.84 436.681 652.92 435.721 655.8C434.761 658.68 434.281 662.68 434.281 667.8V696H421.321V634.8ZM463.358 696V645.96H455.318V634.8H463.358V617.04H476.318V634.8H486.158V645.96H476.318V696H463.358ZM504.788 696.96C499.748 696.96 496.108 695.52 493.868 692.64C491.708 689.76 490.628 685.12 490.628 678.72C490.628 674 491.108 670.28 492.068 667.56C493.028 664.84 494.588 662.88 496.748 661.68C498.988 660.48 502.068 659.88 505.988 659.88C509.028 659.88 513.268 660.04 518.708 660.36V657.36C518.708 653.44 518.388 650.64 517.748 648.96C517.188 647.28 516.148 646.2 514.628 645.72C513.188 645.24 510.748 645 507.308 645C503.868 645 499.268 645.32 493.508 645.96V635.76C499.108 634.48 504.948 633.84 511.028 633.84C516.788 633.84 521.108 634.6 523.988 636.12C526.948 637.64 528.948 640.12 529.988 643.56C531.108 646.92 531.668 651.76 531.668 658.08V696H519.668L519.188 688.44H518.468C516.548 694.12 511.988 696.96 504.788 696.96ZM510.428 685.2C511.948 685.2 513.228 685.04 514.268 684.72C515.308 684.4 516.228 683.76 517.028 682.8C518.148 681.28 518.708 677.92 518.708 672.72V669.48H509.708C507.948 669.48 506.628 669.68 505.748 670.08C504.948 670.48 504.348 671.24 503.948 672.36C503.628 673.48 503.468 675.2 503.468 677.52C503.468 680.64 503.908 682.72 504.788 683.76C505.668 684.72 507.548 685.2 510.428 685.2ZM544.013 620.04V606.84H557.213V620.04H544.013ZM544.133 696V634.8H557.093V696H544.133ZM598.238 662.28C598.238 656.92 598.078 653.16 597.758 651C597.438 648.84 596.798 647.48 595.838 646.92C594.878 646.28 593.198 645.96 590.798 645.96C588.238 645.96 586.398 646.52 585.278 647.64C584.158 648.68 583.438 650.36 583.118 652.68C582.878 655 582.758 658.8 582.758 664.08V696H569.798V634.8H581.678L582.158 642.48H582.878C583.918 639.44 585.598 637.24 587.918 635.88C590.238 634.52 593.238 633.84 596.918 633.84C600.918 633.84 603.918 634.64 605.918 636.24C607.998 637.76 609.398 640.12 610.118 643.32C610.838 646.44 611.198 650.76 611.198 656.28V696H598.238V662.28ZM678.784 662.28C678.784 656.84 678.624 653.08 678.304 651C678.064 648.84 677.504 647.48 676.624 646.92C675.744 646.28 674.144 645.96 671.824 645.96C669.424 645.96 667.664 646.48 666.544 647.52C665.504 648.56 664.824 650.28 664.504 652.68C664.264 655 664.144 658.8 664.144 664.08V696H651.184V662.28C651.184 656.84 651.024 653.08 650.704 651C650.464 648.84 649.904 647.48 649.024 646.92C648.144 646.28 646.544 645.96 644.224 645.96C641.824 645.96 640.104 646.48 639.064 647.52C638.024 648.56 637.344 650.28 637.024 652.68C636.784 655 636.664 658.8 636.664 664.08V696H623.704V634.8H635.584L636.064 642.48H636.784C637.904 639.44 639.544 637.24 641.704 635.88C643.864 634.52 646.784 633.84 650.464 633.84C654.384 633.84 657.304 634.52 659.224 635.88C661.224 637.24 662.584 639.44 663.304 642.48H664.024C665.064 639.44 666.704 637.24 668.944 635.88C671.184 634.52 674.184 633.84 677.944 633.84C681.704 633.84 684.544 634.6 686.464 636.12C688.464 637.64 689.824 639.96 690.544 643.08C691.344 646.12 691.744 650.32 691.744 655.68V696H678.784V662.28ZM743.932 669.84H715.492C715.492 675.04 715.732 678.68 716.212 680.76C716.692 682.76 717.732 684.12 719.332 684.84C720.932 685.48 723.732 685.8 727.732 685.8C731.572 685.8 736.492 685.48 742.492 684.84V695.04C740.492 695.6 737.812 696.04 734.452 696.36C731.172 696.76 727.972 696.96 724.852 696.96C718.132 696.96 713.172 695.96 709.972 693.96C706.852 691.88 704.812 688.76 703.852 684.6C702.972 680.36 702.532 674 702.532 665.52C702.532 657.12 702.972 650.8 703.852 646.56C704.732 642.32 706.692 639.16 709.732 637.08C712.772 634.92 717.532 633.84 724.012 633.84C730.412 633.84 734.972 634.88 737.692 636.96C740.492 638.96 742.212 642 742.852 646.08C743.572 650.08 743.932 656.52 743.932 665.4V669.84ZM723.772 645C721.292 645 719.492 645.36 718.372 646.08C717.252 646.8 716.492 648.16 716.092 650.16C715.772 652.16 715.572 655.52 715.492 660.24H731.572V660.12C731.572 655.48 731.372 652.12 730.972 650.04C730.572 647.96 729.852 646.6 728.812 645.96C727.772 645.32 726.092 645 723.772 645ZM783.628 662.28C783.628 656.92 783.468 653.16 783.148 651C782.828 648.84 782.188 647.48 781.228 646.92C780.268 646.28 778.588 645.96 776.188 645.96C773.628 645.96 771.788 646.52 770.668 647.64C769.548 648.68 768.828 650.36 768.508 652.68C768.268 655 768.148 658.8 768.148 664.08V696H755.188V634.8H767.068L767.548 642.48H768.268C769.308 639.44 770.988 637.24 773.308 635.88C775.628 634.52 778.628 633.84 782.308 633.84C786.308 633.84 789.308 634.64 791.308 636.24C793.388 637.76 794.788 640.12 795.508 643.32C796.228 646.44 796.588 650.76 796.588 656.28V696H783.628V662.28ZM812.694 696V645.96H804.654V634.8H812.694V617.04H825.654V634.8H835.494V645.96H825.654V696H812.694ZM886.442 696.96C883.162 696.96 879.562 696.8 875.642 696.48C871.722 696.16 868.322 695.72 865.442 695.16V683.52C872.242 684.24 877.962 684.6 882.602 684.6C888.202 684.6 891.762 683.72 893.282 681.96C894.082 681.16 894.602 680.08 894.842 678.72C895.082 677.28 895.202 675.36 895.202 672.96C895.202 669.6 895.002 667.2 894.602 665.76C894.202 664.32 893.402 663.28 892.202 662.64C891.082 661.92 889.082 661.32 886.202 660.84L874.322 658.8C870.322 658.16 867.562 656.04 866.042 652.44C864.602 648.84 863.882 643.64 863.882 636.84C863.882 630.44 864.802 625.48 866.642 621.96C868.482 618.36 871.082 615.88 874.442 614.52C877.802 613.16 882.082 612.48 887.282 612.48C890.642 612.48 894.042 612.72 897.482 613.2C901.002 613.6 903.802 614.08 905.882 614.64V626.04C901.722 625.24 896.842 624.84 891.242 624.84C888.042 624.84 885.562 625 883.802 625.32C882.042 625.64 880.722 626.2 879.842 627C878.882 627.8 878.242 628.88 877.922 630.24C877.682 631.6 877.562 633.64 877.562 636.36C877.562 639.24 877.722 641.32 878.042 642.6C878.362 643.8 878.922 644.68 879.722 645.24C880.602 645.8 882.042 646.24 884.042 646.56L895.202 648.48C898.322 648.96 900.842 649.88 902.762 651.24C904.762 652.6 906.282 654.88 907.322 658.08C908.362 661.36 908.882 665.72 908.882 671.16C908.882 678.28 908.042 683.72 906.362 687.48C904.682 691.16 902.242 693.68 899.042 695.04C895.922 696.32 891.722 696.96 886.442 696.96ZM942.888 661.32V649.08H964.968V694.56C962.408 695.28 959.208 695.84 955.368 696.24C951.608 696.72 948.008 696.96 944.568 696.96C937.128 696.96 931.568 695.84 927.888 693.6C924.288 691.28 921.808 687.2 920.448 681.36C919.088 675.52 918.408 666.64 918.408 654.72C918.408 642.8 919.128 633.92 920.568 628.08C922.008 622.24 924.608 618.2 928.368 615.96C932.128 613.64 937.848 612.48 945.528 612.48C948.568 612.48 951.888 612.72 955.488 613.2C959.088 613.6 962.168 614.16 964.728 614.88V626.4C962.168 626 959.408 625.64 956.448 625.32C953.568 625 951.368 624.84 949.848 624.84C944.088 624.84 940.088 625.36 937.848 626.4C935.688 627.36 934.168 629.84 933.288 633.84C932.488 637.76 932.088 644.72 932.088 654.72C932.088 664 932.368 670.64 932.928 674.64C933.488 678.64 934.608 681.36 936.288 682.8C937.968 684.24 940.768 684.96 944.688 684.96C946.848 684.96 949.208 684.76 951.768 684.36V661.32H942.888Z" fill="white"/>
<path fill-rule="evenodd" clip-rule="evenodd" d="M248 300C248 156.406 364.406 40 508 40C651.594 40 768 156.406 768 300C768 443.594 651.594 560 508 560C364.406 560 248 443.594 248 300ZM298.964 182C340.169 109.162 418.343 60 508 60C640.548 60 748 167.452 748 300C748 306.395 747.75 312.731 747.259 319H688.5L631.5 220L516 419L457.5 318.5H268.702C268.237 312.394 268 306.225 268 300C268 289.84 268.631 279.828 269.857 270H407.094L395.547 250H273.216C276.756 233.292 282.036 217.226 288.855 202H367.834L356.287 182H298.964ZM270.992 338C289.204 452.491 388.383 540 508 540C627.269 540 726.218 453 744.847 339H677L631.5 260L516 458.5L446.5 338H270.992Z" fill="url(#paint0_linear)"/>
<defs>
<linearGradient id="paint0_linear" x1="768" y1="40" x2="248" y2="560" gradientUnits="userSpaceOnUse">
<stop stop-color="#FF7373"/>
<stop offset="1" stop-color="#AF1818"/>
</linearGradient>
</defs>
</svg>
